<svg xmlns="http://www.w3.org/2000/svg" viewBox="0 0 1200 800" width="1200" height="800">
  <defs>
    <marker id="arrowA" markerWidth="10" markerHeight="7" refX="9" refY="3.5" orient="auto">
      <polygon points="0 0, 10 3.5, 0 7" fill="#7c3aed"/>
    </marker>
    <marker id="arrowB" markerWidth="10" markerHeight="7" refX="9" refY="3.5" orient="auto">
      <polygon points="0 0, 10 3.5, 0 7" fill="#10b981"/>
    </marker>
    <marker id="arrowC" markerWidth="10" markerHeight="7" refX="9" refY="3.5" orient="auto">
      <polygon points="0 0, 10 3.5, 0 7" fill="#2563eb"/>
    </marker>
    <marker id="arrowE" markerWidth="10" markerHeight="7" refX="9" refY="3.5" orient="auto">
      <polygon points="0 0, 10 3.5, 0 7" fill="#f97316"/>
    </marker>
    <marker id="arrowF" markerWidth="10" markerHeight="7" refX="9" refY="3.5" orient="auto">
      <polygon points="0 0, 10 3.5, 0 7" fill="#7c3aed"/>
    </marker>
    <marker id="arrowG" markerWidth="10" markerHeight="7" refX="9" refY="3.5" orient="auto">
      <polygon points="0 0, 10 3.5, 0 7" fill="#ef4444"/>
    </marker>
    <marker id="arrowH" markerWidth="10" markerHeight="7" refX="9" refY="3.5" orient="auto">
      <polygon points="0 0, 10 3.5, 0 7" fill="#6b7280"/>
    </marker>
    <filter id="shadowSoft" x="-20%" y="-20%" width="140%" height="160%">
      <feDropShadow dx="0" dy="3" stdDeviation="6" flood-color="#0f172a" flood-opacity="0.12"/>
    </filter>
    <filter id="shadowGlass" x="-20%" y="-20%" width="140%" height="160%">
      <feDropShadow dx="0" dy="10" stdDeviation="16" flood-color="#020617" flood-opacity="0.28"/>
    </filter>
    <style>
    text { font-family: 'Helvetica Neue', Helvetica, Arial, 'PingFang SC', 'Microsoft YaHei', 'Microsoft JhengHei', 'SimHei', sans-serif; }
    .title { font-size: 30px; font-weight: 700; fill: #111827; }
    .subtitle { font-size: 14px; font-weight: 500; fill: #6b7280; }
    .section { font-size: 13px; font-weight: 700; fill: #2563eb; letter-spacing: 1.4px; }
    .section-sub { font-size: 12px; font-weight: 500; fill: #94a3b8; }
    .node-title { font-size: 18px; font-weight: 700; fill: #111827; }
    .node-sub { font-size: 12px; font-weight: 500; fill: #6b7280; }
    .node-type { font-size: 12px; font-weight: 700; fill: #9ca3af; letter-spacing: 0.08em; }
    .arrow-label { font-size: 12px; font-weight: 600; fill: #6b7280; }
    .legend { font-size: 12px; font-weight: 500; fill: #6b7280; }
    .footnote { font-size: 12px; font-weight: 500; fill: #94a3b8; }
    </style>
  </defs>
  <rect width="1200.0" height="800.0" fill="#ffffff"/>
  <text x="600.0" y="56" text-anchor="middle" class="title">Phonics-H5 系统架构</text>
  <text x="600.0" y="82" text-anchor="middle" class="subtitle">自然拼读互动学习 H5 · React + Supabase + Cloudflare</text>
  <rect x="40.0" y="120.0" width="1120.0" height="90.0" rx="16.0" fill="#f0fdf4" stroke="#bbf7d0" stroke-width="1.4" stroke-dasharray="6 5"/>
  <text x="28.0" y="165.0" text-anchor="start" dominant-baseline="middle" font-size="14.0" font-weight="600" fill="#6b7280">客户端层 (Client)</text>
  <rect x="40.0" y="240.0" width="1120.0" height="90.0" rx="16.0" fill="#faf5ff" stroke="#e9d5ff" stroke-width="1.4" stroke-dasharray="6 5"/>
  <text x="28.0" y="285.0" text-anchor="start" dominant-baseline="middle" font-size="14.0" font-weight="600" fill="#6b7280">云端服务 (Cloud)</text>
  <rect x="40.0" y="360.0" width="1120.0" height="90.0" rx="16.0" fill="#eff6ff" stroke="#bfdbfe" stroke-width="1.4" stroke-dasharray="6 5"/>
  <text x="28.0" y="405.0" text-anchor="start" dominant-baseline="middle" font-size="14.0" font-weight="600" fill="#6b7280">核心服务层 (Services)</text>
  <rect x="40.0" y="480.0" width="1120.0" height="90.0" rx="16.0" fill="#fff7ed" stroke="#fed7aa" stroke-width="1.4" stroke-dasharray="6 5"/>
  <text x="28.0" y="525.0" text-anchor="start" dominant-baseline="middle" font-size="14.0" font-weight="600" fill="#6b7280">数据源层 (Data)</text>
  <rect x="40.0" y="600.0" width="530.0" height="90.0" rx="16.0" fill="#fdf2f8" stroke="#fbcfe8" stroke-width="1.4" stroke-dasharray="6 5"/>
  <text x="28.0" y="645.0" text-anchor="start" dominant-baseline="middle" font-size="14.0" font-weight="600" fill="#6b7280">游戏类型 (Games)</text>
  <rect x="630.0" y="600.0" width="530.0" height="90.0" rx="16.0" fill="#f5f3ff" stroke="#ddd6fe" stroke-width="1.4" stroke-dasharray="6 5"/>
  <text x="28.0" y="645.0" text-anchor="start" dominant-baseline="middle" font-size="14.0" font-weight="600" fill="#6b7280">部署流水线 (Deploy)</text>
  <path d="M 340.0,165.0 L 400.0,165.0" fill="none" stroke="#7c3aed" stroke-width="2.4" marker-end="url(#arrowA)"/>
  <path d="M 475.0,192.0 L 510.0,240.0 L 510.0,230.0 L 725.0,138.0" fill="none" stroke="#7c3aed" stroke-width="2.4" marker-end="url(#arrowA)"/>
  <path d="M 850.0,165.0 L 900.0,165.0" fill="none" stroke="#7c3aed" stroke-width="2.4" marker-end="url(#arrowA)"/>
  <path d="M 210.0,192.0 L 210.0,258.0 L 260.0,258.0" fill="none" stroke="#7c3aed" stroke-width="2.4" marker-end="url(#arrowA)" stroke-dasharray="6,4"/>
  <path d="M 210.0,192.0 L 330.0,218.0 L 560.0,218.0 L 560.0,258.0" fill="none" stroke="#2563eb" stroke-width="2.4" marker-end="url(#arrowC)" stroke-dasharray="6,4"/>
  <path d="M 340.0,165.0 L 780.0,192.0 L 760.0,192.0 L 760.0,285.0" fill="none" stroke="#2563eb" stroke-width="2.4" marker-end="url(#arrowC)"/>
  <path d="M 980.0,285.0 L 980.0,312.0 L 1060.0,312.0 L 1060.0,138.0 L 210.0,138.0" fill="none" stroke="#f97316" stroke-width="2.4" marker-end="url(#arrowE)" stroke-dasharray="6,4"/>
  <path d="M 360.0,285.0 L 460.0,285.0 L 460.0,405.0 L 920.0,405.0" fill="none" stroke="#f97316" stroke-width="2.4" marker-end="url(#arrowE)" stroke-dasharray="6,4"/>
  <path d="M 260.0,312.0 L 210.0,312.0 L 210.0,498.0 L 260.0,498.0" fill="none" stroke="#f97316" stroke-width="2.4" marker-end="url(#arrowE)" stroke-dasharray="6,4"/>
  <path d="M 860.0,312.0 L 860.0,378.0 L 180.0,378.0" fill="none" stroke="#2563eb" stroke-width="2.4" marker-end="url(#arrowC)" stroke-dasharray="6,4"/>
  <path d="M 260.0,552.0 L 190.0,588.0 L 107.0,618.0 L 107.5,618.0" fill="none" stroke="#7c3aed" stroke-width="2.4" marker-end="url(#arrowA)" stroke-dasharray="6,4"/>
  <path d="M 260.0,552.0 L 210.0,588.0 L 217.0,618.0 L 217.5,618.0" fill="none" stroke="#7c3aed" stroke-width="2.4" marker-end="url(#arrowA)" stroke-dasharray="6,4"/>
  <path d="M 560.0,552.0 L 490.0,588.0 L 327.0,618.0 L 327.5,618.0" fill="none" stroke="#7c3aed" stroke-width="2.4" marker-end="url(#arrowA)" stroke-dasharray="6,4"/>
  <path d="M 560.0,552.0 L 510.0,588.0 L 437.0,618.0 L 437.5,618.0" fill="none" stroke="#7c3aed" stroke-width="2.4" marker-end="url(#arrowA)" stroke-dasharray="6,4"/>
  <path d="M 860.0,552.0 L 790.0,588.0 L 547.0,618.0 L 547.5,618.0" fill="none" stroke="#2563eb" stroke-width="2.4" marker-end="url(#arrowC)" stroke-dasharray="6,4"/>
  <path d="M 870.0,644.0 L 910.0,644.0" fill="none" stroke="#7c3aed" stroke-width="2.4" marker-end="url(#arrowA)"/>
  <path d="M 560.0,312.0 L 560.0,480.0 L 770.0,480.0 L 770.0,618.0 L 1010.0,618.0" fill="none" stroke="#7c3aed" stroke-width="2.4" marker-end="url(#arrowA)" stroke-dasharray="6,4"/>
  <rect x="80.0" y="138.0" width="260.0" height="54.0" rx="10.0" fill="#eff6ff" stroke="#3b82f6" stroke-width="1.8" filter="url(#shadowSoft)"/>
  <text x="210.0" y="156.0" text-anchor="middle" class="node-type">FRAMEWORK</text>
  <text x="210.0" y="171.0" text-anchor="middle" class="node-title">SPA (React 19)</text>
  <text x="210.0" y="193.0" text-anchor="middle" class="node-sub">Vite · HashRouter</text>
  <rect x="400.0" y="138.0" width="150.0" height="54.0" rx="10.0" fill="#fef2f2" stroke="#ef4444" stroke-width="1.8" filter="url(#shadowSoft)"/>
  <text x="475.0" y="156.0" text-anchor="middle" class="node-type">ROUTER</text>
  <text x="475.0" y="171.0" text-anchor="middle" class="node-title">HashRouter</text>
  <text x="475.0" y="193.0" text-anchor="middle" class="node-sub">v7 · 路由分发</text>
  <rect x="600.0" y="138.0" width="250.0" height="54.0" rx="10.0" fill="#f0fdfa" stroke="#14b8a6" stroke-width="1.8" filter="url(#shadowSoft)"/>
  <text x="725.0" y="156.0" text-anchor="middle" class="node-type">CONTEXT</text>
  <text x="725.0" y="171.0" text-anchor="middle" class="node-title">Context Providers</text>
  <text x="725.0" y="193.0" text-anchor="middle" class="node-sub">AuthProvider + ProgressProvider</text>
  <rect x="900.0" y="138.0" width="200.0" height="54.0" rx="10.0" fill="#fefce8" stroke="#eab308" stroke-width="1.8" filter="url(#shadowSoft)"/>
  <text x="1000.0" y="156.0" text-anchor="middle" class="node-type">UI</text>
  <text x="1000.0" y="171.0" text-anchor="middle" class="node-title">Page Components</text>
  <text x="1000.0" y="193.0" text-anchor="middle" class="node-sub">20+ 页面</text>
  <rect x="160.0" y="258.0" width="200.0" height="54.0" rx="10.0" fill="#faf5ff" stroke="#a855f7" stroke-width="1.8" filter="url(#shadowSoft)"/>
  <text x="260.0" y="276.0" text-anchor="middle" class="node-type">DATABASE</text>
  <text x="260.0" y="291.0" text-anchor="middle" class="node-title">Supabase</text>
  <text x="260.0" y="313.0" text-anchor="middle" class="node-sub">Auth · PostgreSQL</text>
  <rect x="460.0" y="258.0" width="200.0" height="54.0" rx="10.0" fill="#fff7ed" stroke="#f97316" stroke-width="1.8" filter="url(#shadowSoft)"/>
  <text x="560.0" y="276.0" text-anchor="middle" class="node-type">HOSTING</text>
  <text x="560.0" y="291.0" text-anchor="middle" class="node-title">Cloudflare Pages</text>
  <text x="560.0" y="313.0" text-anchor="middle" class="node-sub">静态托管 · CDN</text>
  <rect x="760.0" y="258.0" width="200.0" height="54.0" rx="10.0" fill="#fef2f2" stroke="#dc2626" stroke-width="1.8" filter="url(#shadowSoft)"/>
  <text x="860.0" y="276.0" text-anchor="middle" class="node-type">EXTERNAL</text>
  <text x="860.0" y="291.0" text-anchor="middle" class="node-title">外部资源</text>
  <text x="860.0" y="313.0" text-anchor="middle" class="node-sub">Youdao · 51jiaoxi</text>
  <rect x="980.0" y="258.0" width="130.0" height="54.0" rx="10.0" fill="#ecfdf5" stroke="#10b981" stroke-width="1.8" filter="url(#shadowSoft)"/>
  <text x="1045.0" y="276.0" text-anchor="middle" class="node-type">STATIC</text>
  <text x="1045.0" y="291.0" text-anchor="middle" class="node-title">内置资源</text>
  <text x="1045.0" y="313.0" text-anchor="middle" class="node-sub">audio + word-img</text>
  <rect x="80.0" y="378.0" width="200.0" height="54.0" rx="10.0" fill="#eff6ff" stroke="#3b82f6" stroke-width="1.8" filter="url(#shadowSoft)"/>
  <text x="180.0" y="396.0" text-anchor="middle" class="node-type">SPEECH</text>
  <text x="180.0" y="411.0" text-anchor="middle" class="node-title">TTS 语音服务</text>
  <text x="180.0" y="433.0" text-anchor="middle" class="node-sub">Youdao → 本地音频 → Web Speech</text>
  <rect x="360.0" y="378.0" width="200.0" height="54.0" rx="10.0" fill="#fef2f2" stroke="#ef4444" stroke-width="1.8" filter="url(#shadowSoft)"/>
  <text x="460.0" y="396.0" text-anchor="middle" class="node-type">RECOGNIZE</text>
  <text x="460.0" y="411.0" text-anchor="middle" class="node-title">语音识别 (SR)</text>
  <text x="460.0" y="433.0" text-anchor="middle" class="node-sub">Web Speech API</text>
  <rect x="640.0" y="378.0" width="200.0" height="54.0" rx="10.0" fill="#faf5ff" stroke="#a855f7" stroke-width="1.8" filter="url(#shadowSoft)"/>
  <text x="740.0" y="396.0" text-anchor="middle" class="node-type">MEMORY</text>
  <text x="740.0" y="411.0" text-anchor="middle" class="node-title">SRS 间隔复习</text>
  <text x="740.0" y="433.0" text-anchor="middle" class="node-sub">Leitner Box (6盒)</text>
  <rect x="920.0" y="378.0" width="200.0" height="54.0" rx="10.0" fill="#fff7ed" stroke="#eab308" stroke-width="1.8" filter="url(#shadowSoft)"/>
  <text x="1020.0" y="396.0" text-anchor="middle" class="node-type">STATS</text>
  <text x="1020.0" y="411.0" text-anchor="middle" class="node-title">进度引擎</text>
  <text x="1020.0" y="433.0" text-anchor="middle" class="node-sub">⭐ + 🔥 + 🏅</text>
  <rect x="160.0" y="498.0" width="200.0" height="54.0" rx="10.0" fill="#ecfdf5" stroke="#10b981" stroke-width="1.8" filter="url(#shadowSoft)"/>
  <text x="260.0" y="516.0" text-anchor="middle" class="node-type">CURRICULUM</text>
  <text x="260.0" y="531.0" text-anchor="middle" class="node-title">课程数据</text>
  <text x="260.0" y="553.0" text-anchor="middle" class="node-sub">Preschool→K4 · 短元音/CVC</text>
  <rect x="460.0" y="498.0" width="200.0" height="54.0" rx="10.0" fill="#fefce8" stroke="#eab308" stroke-width="1.8" filter="url(#shadowSoft)"/>
  <text x="560.0" y="516.0" text-anchor="middle" class="node-type">TEXTBOOK</text>
  <text x="560.0" y="531.0" text-anchor="middle" class="node-title">教材数据</text>
  <text x="560.0" y="553.0" text-anchor="middle" class="node-sub">外研版 · 1A/1B/2A/2B</text>
  <rect x="760.0" y="498.0" width="200.0" height="54.0" rx="10.0" fill="#fce7f3" stroke="#ec4899" stroke-width="1.8" filter="url(#shadowSoft)"/>
  <text x="860.0" y="516.0" text-anchor="middle" class="node-type">STORIES</text>
  <text x="860.0" y="531.0" text-anchor="middle" class="node-title">绘本数据</text>
  <text x="860.0" y="553.0" text-anchor="middle" class="node-sub">分级阅读 · 图文渲染</text>
  <rect x="60.0" y="618.0" width="95.0" height="52.0" rx="10.0" fill="#eff6ff" stroke="#3b82f6" stroke-width="1.8" filter="url(#shadowSoft)"/>
  <text x="107.5" y="636.0" text-anchor="middle" class="node-type">CARD</text>
  <text x="107.5" y="650.0" text-anchor="middle" class="node-title">🃏 Flashcard</text>
  <text x="107.5" y="672.0" text-anchor="middle" class="node-sub">学习卡</text>
  <rect x="170.0" y="618.0" width="95.0" height="52.0" rx="10.0" fill="#fef2f2" stroke="#ef4444" stroke-width="1.8" filter="url(#shadowSoft)"/>
  <text x="217.5" y="636.0" text-anchor="middle" class="node-type">TRACE</text>
  <text x="217.5" y="650.0" text-anchor="middle" class="node-title">✍️ Trace</text>
  <text x="217.5" y="672.0" text-anchor="middle" class="node-sub">描红写字</text>
  <rect x="280.0" y="618.0" width="95.0" height="52.0" rx="10.0" fill="#f0fdfa" stroke="#14b8a6" stroke-width="1.8" filter="url(#shadowSoft)"/>
  <text x="327.5" y="636.0" text-anchor="middle" class="node-type">LISTEN</text>
  <text x="327.5" y="650.0" text-anchor="middle" class="node-title">👂 Listen</text>
  <text x="327.5" y="672.0" text-anchor="middle" class="node-sub">听音选择</text>
  <rect x="390.0" y="618.0" width="95.0" height="52.0" rx="10.0" fill="#fff7ed" stroke="#eab308" stroke-width="1.8" filter="url(#shadowSoft)"/>
  <text x="437.5" y="636.0" text-anchor="middle" class="node-type">MATCH</text>
  <text x="437.5" y="650.0" text-anchor="middle" class="node-title">🔗 Match</text>
  <text x="437.5" y="672.0" text-anchor="middle" class="node-sub">连线匹配</text>
  <rect x="500.0" y="618.0" width="95.0" height="52.0" rx="10.0" fill="#fdf2f8" stroke="#ec4899" stroke-width="1.8" filter="url(#shadowSoft)"/>
  <text x="547.5" y="636.0" text-anchor="middle" class="node-type">SPELL</text>
  <text x="547.5" y="650.0" text-anchor="middle" class="node-title">📝 Spell</text>
  <text x="547.5" y="672.0" text-anchor="middle" class="node-sub">拼单词</text>
  <rect x="670.0" y="618.0" width="200.0" height="52.0" rx="10.0" fill="#f5f3ff" stroke="#7c3aed" stroke-width="1.8" filter="url(#shadowSoft)"/>
  <text x="770.0" y="636.0" text-anchor="middle" class="node-type">BUILD</text>
  <text x="770.0" y="650.0" text-anchor="middle" class="node-title">Vite Build</text>
  <text x="770.0" y="672.0" text-anchor="middle" class="node-sub">React Plugin → esbuild压缩</text>
  <rect x="910.0" y="618.0" width="200.0" height="52.0" rx="10.0" fill="#fff7ed" stroke="#f97316" stroke-width="1.8" filter="url(#shadowSoft)"/>
  <text x="1010.0" y="636.0" text-anchor="middle" class="node-type">DEPLOY</text>
  <text x="1010.0" y="650.0" text-anchor="middle" class="node-title">Cloudflare Pages</text>
  <text x="1010.0" y="672.0" text-anchor="middle" class="node-sub">npm run deploy:pages</text>
  <rect x="461.0" y="218.0" width="63" height="20" rx="6" fill="#ffffff" opacity="0.94"/>
  <text x="492.5" y="232.0" text-anchor="middle" class="arrow-label">Context</text>
  <rect x="847.0" y="151.0" width="56" height="20" rx="6" fill="#ffffff" opacity="0.94"/>
  <text x="875.0" y="165.0" text-anchor="middle" class="arrow-label">Inject</text>
  <rect x="146.5" y="211.0" width="91" height="20" rx="6" fill="#ffffff" opacity="0.94"/>
  <text x="192.0" y="225.0" text-anchor="middle" class="arrow-label">Auth / Sync</text>
  <rect x="242.0" y="207.0" width="56" height="20" rx="6" fill="#ffffff" opacity="0.94"/>
  <text x="270.0" y="221.0" text-anchor="middle" class="arrow-label">Deploy</text>
  <rect x="693.0" y="224.5" width="98" height="20" rx="6" fill="#ffffff" opacity="0.94"/>
  <text x="742.0" y="238.5" text-anchor="middle" class="arrow-label">Assets / TTS</text>
  <rect x="421.0" y="331.0" width="42" height="20" rx="6" fill="#ffffff" opacity="0.94"/>
  <text x="442.0" y="345.0" text-anchor="middle" class="arrow-label">Sync</text>
  <rect x="865.5" y="630.0" width="49" height="20" rx="6" fill="#ffffff" opacity="0.94"/>
  <text x="890.0" y="644.0" text-anchor="middle" class="arrow-label">build</text>
  <rect x="1019.0" y="106.0" width="149" height="156" rx="10" fill="#f9fafb" opacity="0.88"/>
  <line x1="1029.0" y1="120.0" x2="1059.0" y2="120.0" stroke="#7c3aed" stroke-width="2.4" marker-end="url(#arrowA)"/>
  <text x="1069.0" y="124.0" class="legend">主流程 / 控制流</text>
  <line x1="1029.0" y1="142.0" x2="1059.0" y2="142.0" stroke="#2563eb" stroke-width="2.4" marker-end="url(#arrowC)"/>
  <text x="1069.0" y="146.0" class="legend">数据读取</text>
  <line x1="1029.0" y1="164.0" x2="1059.0" y2="164.0" stroke="#10b981" stroke-width="2.4" marker-end="url(#arrowB)"/>
  <text x="1069.0" y="168.0" class="legend">数据写入</text>
  <line x1="1029.0" y1="186.0" x2="1059.0" y2="186.0" stroke="#7c3aed" stroke-width="2.4" marker-end="url(#arrowA)"/>
  <text x="1069.0" y="190.0" class="legend">异步同步 (Auth)</text>
  <line x1="1029.0" y1="208.0" x2="1059.0" y2="208.0" stroke="#f97316" stroke-width="2.4" marker-end="url(#arrowE)"/>
  <text x="1069.0" y="212.0" class="legend">数据关联</text>
  <line x1="1029.0" y1="230.0" x2="1059.0" y2="230.0" stroke="#ef4444" stroke-width="2.4" marker-end="url(#arrowG)"/>
  <text x="1069.0" y="234.0" class="legend">操作反馈</text>
</svg>